<svg xmlns="http://www.w3.org/2000/svg" viewBox="0 0 60 60">
  <g fill="none">
    <!-- Body -->
    <ellipse cx="30" cy="34" rx="14" ry="17" fill="#f5c518" stroke="#333" stroke-width="1.5"/>
    <!-- Head -->
    <ellipse cx="30" cy="16" rx="12" ry="11" fill="#f5c518" stroke="#333" stroke-width="1.5"/>
    <!-- Eyes -->
    <ellipse cx="25" cy="14" rx="3.5" ry="4" fill="white" stroke="#333" stroke-width="1"/>
    <ellipse cx="35" cy="14" rx="3.5" ry="4" fill="white" stroke="#333" stroke-width="1"/>
    <circle cx="26" cy="15" r="1.8" fill="#333"/>
    <circle cx="36" cy="15" r="1.8" fill="#333"/>
    <!-- Beak -->
    <ellipse cx="30" cy="21" rx="4" ry="2.5" fill="#f0a020" stroke="#333" stroke-width="1"/>
    <!-- Ears -->
    <path d="M19 8 Q16 2 21 5" fill="#f5c518" stroke="#333" stroke-width="1.2"/>
    <path d="M41 8 Q44 2 39 5" fill="#f5c518" stroke="#333" stroke-width="1.2"/>
    <!-- Feet -->
    <path d="M22 50 Q16 54 14 58 Q20 58 24 54" fill="#f0a020" stroke="#333" stroke-width="1"/>
    <path d="M38 50 Q44 54 46 58 Q40 58 36 54" fill="#f0a020" stroke="#333" stroke-width="1"/>
    <!-- Wing-arms -->
    <path d="M16 30 Q10 35 14 42" stroke="#c8a010" stroke-width="2" stroke-linecap="round"/>
    <path d="M44 30 Q50 35 46 42" stroke="#c8a010" stroke-width="2" stroke-linecap="round"/>
  </g>
</svg>
